<?xml version="1.0" standalone="no"?>
<!DOCTYPE svg PUBLIC "-//W3C//DTD SVG 20010904//EN"
 "http://www.w3.org/TR/2001/REC-SVG-20010904/DTD/svg10.dtd">
<svg version="1.0" xmlns="http://www.w3.org/2000/svg"
 width="300.000000pt" height="72.000000pt" viewBox="0 0 300.000000 72.000000"
 preserveAspectRatio="xMidYMid meet">
<metadata>
Created by potrace 1.10, written by Peter Selinger 2001-2011
</metadata>
<g transform="translate(0.000000,72.000000) scale(0.050000,-0.050000)"
fill="#000000" stroke="none">
<path d="M5274 1416 c-13 -8 23 -16 81 -16 58 0 105 4 105 8 0 16 -163 23
-186 8z"/>
<path d="M5881 1361 c-43 -27 -15 -45 60 -37 62 6 64 8 29 36 -22 17 -31 19
-23 5 10 -16 4 -25 -17 -25 -18 0 -27 9 -20 20 15 25 9 25 -29 1z"/>
<path d="M331 1285 c-16 -40 79 -128 121 -112 47 19 49 70 3 108 -57 48 -107
49 -124 4z"/>
<path d="M591 1281 c-40 -44 -2 -121 60 -121 61 0 73 57 24 110 l-47 51 -37
-40z"/>
<path d="M248 1112 c-20 -51 7 -92 61 -94 28 -2 66 -4 84 -5 34 -3 60 77 32
94 -52 32 -165 35 -177 5z"/>
<path d="M726 1108 c-23 -60 245 -305 288 -262 33 32 28 41 -94 164 -132 134
-172 154 -194 98z"/>
<path d="M500 1034 c0 -65 151 -109 181 -53 27 51 26 53 -44 77 -100 35 -137
28 -137 -24z"/>
<path d="M1994 1006 c-35 -56 -9 -546 28 -546 35 0 38 18 41 250 2 138 4 261
5 275 2 28 -59 46 -74 21z"/>
<path d="M2450 1005 c-128 -32 -223 -189 -199 -328 48 -285 490 -312 505 -31
l6 114 -121 0 c-94 0 -121 -7 -121 -30 0 -22 22 -30 80 -30 77 0 80 -2 80 -67
0 -117 -168 -154 -278 -62 -196 165 19 465 240 335 43 -25 63 -29 80 -12 66
66 -130 147 -272 111z"/>
<path d="M2940 736 c0 -263 2 -276 40 -276 38 0 40 13 40 276 0 262 -2 275
-40 275 -38 0 -40 -13 -40 -275z"/>
<path d="M3640 735 l0 -275 47 0 c44 0 47 6 38 100 l-10 100 77 -1 c70 -1 85
-11 148 -100 56 -79 81 -99 128 -99 l57 0 -82 90 c-99 106 -99 111 -25 153
199 113 36 320 -246 311 l-132 -4 0 -275z m340 165 c90 -90 15 -180 -150 -180
l-110 0 0 110 0 110 110 0 c83 0 120 -10 150 -40z"/>
<path d="M4792 1006 c-4 -5 40 -78 99 -164 95 -138 107 -168 113 -273 4 -90
13 -119 36 -119 23 0 32 29 36 119 6 106 18 134 115 276 128 186 120 165 60
165 -40 0 -64 -25 -125 -135 -42 -74 -80 -134 -86 -134 -11 0 -126 196 -136
232 -6 23 -95 49 -112 33z"/>
<path d="M5510 996 c-141 -81 -106 -247 60 -284 164 -37 217 -89 157 -155 -52
-58 -205 -40 -250 29 -18 27 -82 0 -72 -30 29 -89 233 -136 341 -78 154 82
102 223 -107 290 -88 29 -131 53 -136 78 -16 90 109 124 219 60 44 -26 63 -29
81 -11 72 72 -188 161 -293 101z"/>
<path d="M1305 975 c5 -15 63 -29 152 -36 311 -25 387 -390 84 -402 -45 -2
-96 -4 -114 -5 -29 -2 -33 20 -29 154 4 149 -14 214 -60 214 -10 0 -18 -99
-18 -220 l0 -220 131 0 c357 0 503 358 208 510 -74 39 -366 42 -354 5z"/>
<path d="M4335 736 c-78 -179 -109 -270 -95 -284 37 -37 56 -3 207 363 54 131
53 131 113 -20 28 -69 53 -131 56 -139 4 -8 -41 -17 -98 -20 -159 -9 -154 -56
6 -56 121 0 128 -3 149 -57 19 -50 107 -103 107 -64 0 8 -39 100 -87 203 -48
103 -100 222 -114 263 -56 156 -112 112 -244 -189z"/>
<path d="M167 909 c-25 -65 9 -91 108 -85 108 7 162 93 61 98 -25 2 -71 6
-102 9 -35 4 -60 -4 -67 -22z"/>
<path d="M448 892 c-24 -61 7 -92 92 -92 81 0 127 42 88 80 -39 37 -167 46
-180 12z"/>
<path d="M720 830 c0 -47 7 -50 100 -50 122 0 150 65 38 88 -115 22 -138 16
-138 -38z"/>
<path d="M89 733 c-15 -37 -5 -96 16 -94 8 1 51 1 95 1 72 0 80 5 80 50 0 38
-10 50 -45 50 -25 0 -65 6 -90 13 -30 8 -48 1 -56 -20z"/>
<path d="M354 713 c-25 -66 15 -74 338 -69 313 6 318 7 324 51 l7 45 -329 0
c-257 0 -332 -6 -340 -27z"/>
<path d="M3220 675 c0 -29 19 -35 121 -35 102 0 121 5 115 32 -9 50 -236 53
-236 3z"/>
<path d="M804 605 c-76 -6 -86 -13 -80 -51 5 -39 16 -43 96 -37 l90 6 -99
-101 c-92 -95 -97 -104 -67 -135 31 -31 43 -24 165 93 152 147 168 195 58 182
-12 -1 -28 11 -34 28 -7 16 -19 28 -27 27 -9 -2 -55 -7 -102 -12z"/>
<path d="M476 558 c-54 -34 -5 -88 75 -81 100 9 108 14 95 63 -10 39 -116 50
-170 18z"/>
<path d="M265 547 c-30 -13 -33 -71 -4 -100 27 -27 119 -10 133 26 22 58 -56
103 -129 74z"/>
<path d="M573 408 c-36 -20 -52 -42 -45 -61 7 -17 12 -34 12 -39 0 -20 54 -4
96 28 85 66 34 124 -63 72z"/>
<path d="M360 308 c-27 -15 -58 -30 -68 -34 -28 -9 8 -94 40 -94 24 0 73 25
145 72 4 3 1 24 -7 46 -15 48 -39 50 -110 10z"/>
<path d="M593 223 c-75 -82 1 -158 80 -79 47 46 48 52 17 83 -42 42 -56 41
-97 -4z"/>
</g>
</svg>
